<svg viewBox="0 0 512 512" xmlns="http://www.w3.org/2000/svg"><g fill="none" stroke-width="2"><path d="m480.31 139.82q1.89 4.58 3.99 9.2c18.26 40.07 24.92 84.11 20.44 128.07" stroke="#806a15"/><path d="m504.74 277.09-71.91-70.55" stroke="#c09d15"/><path d="m432.83 206.54q-1.57-1.68-3.1-3.66-1.59-2.05-3.31-3.78-11.2-11.3-22.53-22.56-4.78-4.76-10.2-6.88-.47-.19-.67-.65-2.6-6.04-7.3-10.68-9.56-9.42-19.65-19.72-6.26-6.39-10.81-8.71c-22.36-11.39-46.96 5.05-46.31 29.66q.01.66-.65.66h-131.54q-.23 0-.42-.13-.15-.1-.27-.13" stroke="#806a15"/><path d="m176.07 159.96-32.72-45.67" stroke="#c09d15"/><path d="m143.35 114.29q-.03-.03-.94-1.49-1.45-2.3-4.11-2.27c-20.76.24-35.78 16.79-35.76 37.17q.14 93.44-.04 187.31-.02 7.81 1.52 13.09 3.42 11.74 13.94 19.8" stroke="#806a15"/><path d="m117.96 367.9 133.81 133.85" stroke="#c09d15"/><path d="m251.77 501.75q-9.41-.45-19.25-1.21-47.27-3.67-89.95-24.14-64.72-31.02-104.49-93.23" stroke="#806a15"/><path d="m143.35 114.29-.3 45.54a.39.39 0 0 0 .39.4l32.63-.27" stroke="#403300"/><path d="m432.83 206.54q.47 2.2 1.26 4.21c5.92 15.06-.79 31.92-14.71 39.17q-12.62 6.58-26.73 1.35-.63-.24-.63.43l-.31 121.06a.43.42 90 0 1 -.42.43q-126.1-.06-252.07.03-3.58 0-6.61-.34-4.67-.52-7.04-1.7-3.6-1.78-7.61-3.28" stroke="#403300"/><path d="m113.66 136.48q-1.89 4.45-1.9 8.61-.09 84.63 0 170.53 0 .71.48.19 8.48-9.15 21.32-11.14.39-.06.39-.45v-183.75a.39.39 0 0 0 -.48-.38q-14.19 3.19-19.81 16.39" stroke="#494949"/><path d="m388.62 195.01c1.36 1.23 1.93 3.16.78 4.72q-4.21 5.73-9.99 8.91-.61.34-.12.82 8.74 8.63 18.23 18.26c3.77 3.81 9.65 4.73 13.55.58q3.58-3.81 2.26-8.77-.57-2.16-3.86-5.48-10.04-10.12-20.13-20.09" stroke="#806a15"/><path d="m389.34 193.96c-4.68-5.66-10.44-5.5-15.46-.88-6.31 5.8-15.77 4.48-21.51-1.21q-11.13-11.03-22.28-22.24-3.71-3.72-4.75-7.94c-3.92-15.88 15.29-25.93 26.71-14.51q10.91 10.92 20.55 20.55.49.48 1.15.31 4.66-1.18 10.69-.88a.21.21 0 0 0 .16-.35q-12.82-13.1-26.02-26.18c-10.34-10.24-26.15-10.37-36.1.01-9.41 9.82-9.18 25.23.4 34.85q10.13 10.18 21.65 21.75c4.7 4.72 9.89 8.14 16.57 8.7q14.38 1.19 23.08-10.26 1.58-2.08 4.44-.67" stroke="#296470"/><path d="m389.34 193.96-.72 1.05" stroke="#a8ce85"/><path d="m355.91 185.97c4.37 5.34 10.13 5.55 15.12.97 6.77-6.21 16.16-4.62 22.27 1.48q11.79 11.76 22.23 22.3c12.34 12.44-1.17 32.41-17.31 25.57q-3.1-1.32-9.16-7.56-8.03-8.28-16.82-16.82a.61.59-29.3 0 0 -.58-.15q-5.07 1.32-10.57.9a.24.24 0 0 0 -.2.39q1.18 1.47 2.21 2.53 9.25 9.45 19.52 19.84 6.64 6.72 10.62 8.76 7.71 3.96 16.39 2.24c15.93-3.16 24.4-20.69 17.64-34.94q-2.34-4.93-8.64-10.91-8-7.59-15.97-15.97-5.94-6.25-10.85-8.56c-7.54-3.55-16.91-2.98-23.95 1.61q-3.16 2.06-7.01 6.7-1.42 1.7-4.24.62" stroke="#00556d"/><path d="m356.61 184.97q-2.64-2.7.06-6.04 3.92-4.85 9.24-7.87a.36.35-37.1 0 0 .08-.56q-8.53-8.38-17.76-17.77c-2.86-2.91-5.89-4.72-10.06-3.57-4.98 1.38-8 6.71-6.23 11.62q.69 1.89 3.5 4.75 10.18 10.33 20.47 20.44" stroke="#806a15"/><path d="m356.61 184.97-.7 1" stroke="#80bf82"/><path d="m371.99 362.93 10.45-.17q.51-.01.51-.52l-.05-113.54" stroke="#636365"/><path d="m382.9 248.7-.07-3.38a1.12 1.11 22.3 0 0 -.34-.8q-11.74-11.66-23.39-23.37-4.47-4.49-6.88-10.2-.2-.47-.67-.67-5.76-2.47-10.29-6.97-11.59-11.5-23.05-23.05-4.52-4.57-7.02-10.52a.71.7-11.3 0 0 -.65-.43h-167.23a.28.28 0 0 0 -.28.28q-.03 69.18.01 138.68c0 2.6-1.36 5.04-4.2 5.12q-12.64.37-20.3 9.13c-8.53 9.77-9.07 22.7-.77 32.57q4.38 5.21 11.13 7.64 3.65 1.32 14.67 1.27 114.19-.53 228.42-1.07" stroke="#707071"/><path d="m382.9 248.7-9.81-8.3a.62.62 0 0 0 -1.02.48l-.08 122.05" stroke="#d3d3d6"/><path d="m251.77 501.75q6.28.46 9.48.17 6.89-.63 14.38-1.28 58.85-5.07 108.61-35.06 42.2-25.43 71.62-64.4 40.76-53.96 48.99-121.68.16-1.33-.11-2.41" stroke="#403300"/><path d="m315.8 206.28a3.59 3.59 0 0 0 -3.59-3.59h-143.08a3.59 3.59 0 0 0 -3.59 3.59v.08a3.59 3.59 0 0 0 3.59 3.59h143.08a3.59 3.59 0 0 0 3.59-3.59z" stroke="#707071"/><path d="m315.46 231.97c.93-2.52-.47-5.08-3.2-5.08q-70.84-.02-142.87-.01-3.71 0-3.57 3.55.01.07 0 .14-.08 3.55 3.57 3.55 72.39.03 143.65 0 .51 0 .15.36l-16.26 16.26q-.41.4-.99.4-63.01-.01-126.53.01-3.66 0-3.61 3.55 0 .07 0 .15-.01 3.55 3.52 3.55 59.78.02 119.37.02.58 0 .17.41l-15.83 15.82a1.74 1.71 22.4 0 1 -1.21.49h-102.38q-3.7 0-3.93 3.69-.03.51.18.99 1.13 2.59 3.95 2.59h95.07q.57 0 .17.41l-15.95 15.92a1.37 1.35-67.2 0 1 -.96.4h-78.33q-3.55 0-4.1 3.5-.08.49.07.96.88 2.81 3.83 2.81h75.31q.56 0 .37.53l-5.55 15.7q-.19.54-.76.54-33.32-.06-69.22-.03c-2.31 0-4.79 1.87-3.98 4.44q.89 2.82 3.85 2.82 33.24 0 68.32 0 3.06 0 3.93-3.18.13-.49.61-.64 10.34-3.28 21.15-7.21 2.52-.92 4.01-2.45 4.93-5.01 9.89-9.91.62-.61 1.49-.61h32.72q3.36 0 4.18-3.26.15-.62-.05-1.23-.91-2.77-3.83-2.77l-25.95-.01q-.69 0-.2-.49l15.47-15.48a2.66 2.66 0 0 1 1.93-.78q4.4.06 8.97-.02c3.04-.06 4.92-3.35 2.96-5.83-1.23-1.56-3.38-1.57-5.14-1.34q-.87.12-.25-.5 12.66-12.64 25.66-25.66c4.04-4.05 2.72-8.76-1.17-12.41-4.87-4.56-9.54-12.27-17.16-6.05-.5.41-.84 1.08-1.26 1.56q-.59.66-.28-.17" stroke="#707071"/><path d="m316.18 239.21 10.61 10.61a.54.54 0 0 0 .76 0l4.2-4.2a3.06 3.06 0 0 0 0-4.33l-7.04-7.04a3.06 3.06 0 0 0 -4.33 0l-4.2 4.2a.54.54 0 0 0 0 .76" stroke="#2a383d"/><path d="m323.3832 253.976a.45.45 0 0 0 -.0011-.6363l-10.7384-10.7011a.45.45 0 0 0 -.6364.0011l-3.9105 3.9243a.45.45 0 0 0 .0011.6363l10.7384 10.7011a.45.45 0 0 0 .6364-.0011z" stroke="#80311c"/><path d="m261.25 309.64 3 2.95a.4.4 0 0 0 .56-.01l50.41-50.41q.38-.38 0-.77l-2.81-2.84" stroke="#805202"/><path d="m312.41 258.56-7.81-7.74q-.37-.37-.75 0l-50.49 50.49q-.21.21 0 .41l7.89 7.92" stroke="#806a15"/><path d="m312.41 258.56-51.16 51.08" stroke="#ffbc17"/><path d="m251.04 306.41a.32.32 0 0 0 -.53.12l-2.27 6.42a.32.32 0 0 0 .07.33l4.46 4.4a.32.32 0 0 0 .33.07l6.38-2.2a.32.32 0 0 0 .12-.53z" stroke="#707071"/></g><path d="m245.37 0h15.38q5.05.41 10.13.75 44.2 3.02 84.52 20.61c54.34 23.69 97.59 65.66 124.91 118.46q1.89 4.58 3.99 9.2c18.26 40.07 24.92 84.11 20.44 128.07l-71.91-70.55q-1.57-1.68-3.1-3.66-1.59-2.05-3.31-3.78-11.2-11.3-22.53-22.56-4.78-4.76-10.2-6.88-.47-.19-.67-.65-2.6-6.04-7.3-10.68-9.56-9.42-19.65-19.72-6.26-6.39-10.81-8.71c-22.36-11.39-46.96 5.05-46.31 29.66q.01.66-.65.66h-131.54q-.23 0-.42-.13-.15-.1-.27-.13l-32.72-45.67q-.03-.03-.94-1.49-1.45-2.3-4.11-2.27c-20.76.24-35.78 16.79-35.76 37.17q.14 93.44-.04 187.31-.02 7.81 1.52 13.09 3.42 11.74 13.94 19.8l133.81 133.85q-9.41-.45-19.25-1.21-47.27-3.67-89.95-24.14-64.72-31.02-104.49-93.23-35.51-57.14-38.08-124.81v-15.4q4.38-94.34 67.27-162.31 6.78-7.32 14.21-14.05 68.97-62.44 163.89-66.6z" fill="#ffd42a"/><path d="m143.35 114.29-.3 45.54a.39.39 0 0 0 .39.4l32.63-.27q.12.03.27.13.19.13.42.13h131.54q.66 0 .65-.66c-.65-24.61 23.95-41.05 46.31-29.66q4.55 2.32 10.81 8.71 10.09 10.3 19.65 19.72 4.7 4.64 7.3 10.68.2.46.67.65 5.42 2.12 10.2 6.88 11.33 11.26 22.53 22.56 1.72 1.73 3.31 3.78 1.53 1.98 3.1 3.66.47 2.2 1.26 4.21c5.92 15.06-.79 31.92-14.71 39.17q-12.62 6.58-26.73 1.35-.63-.24-.63.43l-.31 121.06a.43.42 90 0 1 -.42.43q-126.1-.06-252.07.03-3.58 0-6.61-.34-4.67-.52-7.04-1.7-3.6-1.78-7.61-3.28-10.52-8.06-13.94-19.8-1.54-5.28-1.52-13.09.18-93.87.04-187.31c-.02-20.38 15-36.93 35.76-37.17q2.66-.03 4.11 2.27.91 1.46.94 1.49zm-29.69 22.19q-1.89 4.45-1.9 8.61-.09 84.63 0 170.53 0 .71.48.19 8.48-9.15 21.32-11.14.39-.06.39-.45v-183.75a.39.39 0 0 0 -.48-.38q-14.19 3.19-19.81 16.39zm274.96 58.53c1.36 1.23 1.93 3.16.78 4.72q-4.21 5.73-9.99 8.91-.61.34-.12.82 8.74 8.63 18.23 18.26c3.77 3.81 9.65 4.73 13.55.58q3.58-3.81 2.26-8.77-.57-2.16-3.86-5.48-10.04-10.12-20.13-20.09c-4.68-5.66-10.44-5.5-15.46-.88-6.31 5.8-15.77 4.48-21.51-1.21q-11.13-11.03-22.28-22.24-3.71-3.72-4.75-7.94c-3.92-15.88 15.29-25.93 26.71-14.51q10.91 10.92 20.55 20.55.49.48 1.15.31 4.66-1.18 10.69-.88a.21.21 0 0 0 .16-.35q-12.82-13.1-26.02-26.18c-10.34-10.24-26.15-10.37-36.1.01-9.41 9.82-9.18 25.23.4 34.85q10.13 10.18 21.65 21.75c4.7 4.72 9.89 8.14 16.57 8.7q14.38 1.19 23.08-10.26 1.58-2.08 4.44-.67zm-32.71-9.04c4.37 5.34 10.13 5.55 15.12.97 6.77-6.21 16.16-4.62 22.27 1.48q11.79 11.76 22.23 22.3c12.34 12.44-1.17 32.41-17.31 25.57q-3.1-1.32-9.16-7.56-8.03-8.28-16.82-16.82a.61.59-29.3 0 0 -.58-.15q-5.07 1.32-10.57.9a.24.24 0 0 0 -.2.39q1.18 1.47 2.21 2.53 9.25 9.45 19.52 19.84 6.64 6.72 10.62 8.76 7.71 3.96 16.39 2.24c15.93-3.16 24.4-20.69 17.64-34.94q-2.34-4.93-8.64-10.91-8-7.59-15.97-15.97-5.94-6.25-10.85-8.56c-7.54-3.55-16.91-2.98-23.95 1.61q-3.16 2.06-7.01 6.7-1.42 1.7-4.24.62-2.64-2.7.06-6.04 3.92-4.85 9.24-7.87a.36.35-37.1 0 0 .08-.56q-8.53-8.38-17.76-17.77c-2.86-2.91-5.89-4.72-10.06-3.57-4.98 1.38-8 6.71-6.23 11.62q.69 1.89 3.5 4.75 10.18 10.33 20.47 20.44zm16.08 176.96 10.45-.17q.51-.01.51-.52l-.05-113.54-.07-3.38a1.12 1.11 22.3 0 0 -.34-.8q-11.74-11.66-23.39-23.37-4.47-4.49-6.88-10.2-.2-.47-.67-.67-5.76-2.47-10.29-6.97-11.59-11.5-23.05-23.05-4.52-4.57-7.02-10.52a.71.7-11.3 0 0 -.65-.43h-167.23a.28.28 0 0 0 -.28.28q-.03 69.18.01 138.68c0 2.6-1.36 5.04-4.2 5.12q-12.64.37-20.3 9.13c-8.53 9.77-9.07 22.7-.77 32.57q4.38 5.21 11.13 7.64 3.65 1.32 14.67 1.27 114.19-.53 228.42-1.07z"/><path d="m143.35 114.29 32.72 45.67-32.63.27a.39.39 0 0 1 -.39-.4z" fill="#806600"/><path d="m113.66 136.48q5.62-13.2 19.81-16.39a.39.39 0 0 1 .48.38v183.75q0 .39-.39.45-12.84 1.99-21.32 11.14-.48.52-.48-.19-.09-85.9 0-170.53.01-4.16 1.9-8.61z" fill="#919191"/><path d="m389.34 193.96-.72 1.05q-2.86-1.41-4.44.67-8.7 11.45-23.08 10.26c-6.68-.56-11.87-3.98-16.57-8.7q-11.52-11.57-21.65-21.75c-9.58-9.62-9.81-25.03-.4-34.85 9.95-10.38 25.76-10.25 36.1-.01q13.2 13.08 26.02 26.18a.21.21 0 0 1 -.16.35q-6.03-.3-10.69.88-.66.17-1.15-.31-9.64-9.63-20.55-20.55c-11.42-11.42-30.63-1.37-26.71 14.51q1.04 4.22 4.75 7.94 11.15 11.21 22.28 22.24c5.74 5.69 15.2 7.01 21.51 1.21 5.02-4.62 10.78-4.78 15.46.88z" fill="#51c8e0"/><path d="m480.31 139.82q29.54 52.76 31.69 114.08v14.85q-1.95 54.66-25.07 101.45-22.42 45.36-58.75 77.48-68.6 60.64-161.93 64.32h-14.6c-89.36-3-168.92-50.8-213.52-128.13-.12-.19-.13-.51-.05-.7q39.77 62.21 104.49 93.23 42.68 20.47 89.95 24.14 9.84.76 19.25 1.21 6.28.46 9.48.17 6.89-.63 14.38-1.28 58.85-5.07 108.61-35.06 42.2-25.43 71.62-64.4 40.76-53.96 48.99-121.68.16-1.33-.11-2.41c4.48-43.96-2.18-88-20.44-128.07q-2.1-4.62-3.99-9.2z"/><path d="m356.61 184.97-.7 1q-10.29-10.11-20.47-20.44-2.81-2.86-3.5-4.75c-1.77-4.91 1.25-10.24 6.23-11.62 4.17-1.15 7.2.66 10.06 3.57q9.23 9.39 17.76 17.77a.36.35-37.1 0 1 -.08.56q-5.32 3.02-9.24 7.87-2.7 3.34-.06 6.04z" fill="#ffd42a"/><path d="m382.9 248.7-9.81-8.3a.62.62 0 0 0 -1.02.48l-.08 122.05q-114.23.54-228.42 1.07-11.02.05-14.67-1.27-6.75-2.43-11.13-7.64c-8.3-9.87-7.76-22.8.77-32.57q7.66-8.76 20.3-9.13c2.84-.08 4.2-2.52 4.2-5.12q-.04-69.5-.01-138.68a.28.28 0 0 1 .28-.28h167.23a.71.7-11.3 0 1 .65.43q2.5 5.95 7.02 10.52 11.46 11.55 23.05 23.05 4.53 4.5 10.29 6.97.47.2.67.67 2.41 5.71 6.88 10.2 11.65 11.71 23.39 23.37a1.12 1.11 22.3 0 1 .34.8zm-67.1-42.42a3.59 3.59 0 0 0 -3.59-3.59h-143.08a3.59 3.59 0 0 0 -3.59 3.59v.08a3.59 3.59 0 0 0 3.59 3.59h143.08a3.59 3.59 0 0 0 3.59-3.59zm-.34 25.69c.93-2.52-.47-5.08-3.2-5.08q-70.84-.02-142.87-.01-3.71 0-3.57 3.55.01.07 0 .14-.08 3.55 3.57 3.55 72.39.03 143.65 0 .51 0 .15.36l-16.26 16.26q-.41.4-.99.4-63.01-.01-126.53.01-3.66 0-3.61 3.55 0 .07 0 .15-.01 3.55 3.52 3.55 59.78.02 119.37.02.58 0 .17.41l-15.83 15.82a1.74 1.71 22.4 0 1 -1.21.49h-102.38q-3.7 0-3.93 3.69-.03.51.18.99 1.13 2.59 3.95 2.59h95.07q.57 0 .17.41l-15.95 15.92a1.37 1.35-67.2 0 1 -.96.4h-78.33q-3.55 0-4.1 3.5-.08.49.07.96.88 2.81 3.83 2.81h75.31q.56 0 .37.53l-5.55 15.7q-.19.54-.76.54-33.32-.06-69.22-.03c-2.31 0-4.79 1.87-3.98 4.44q.89 2.82 3.85 2.82 33.24 0 68.32 0 3.06 0 3.93-3.18.13-.49.61-.64 10.34-3.28 21.15-7.21 2.52-.92 4.01-2.45 4.93-5.01 9.89-9.91.62-.61 1.49-.61h32.72q3.36 0 4.18-3.26.15-.62-.05-1.23-.91-2.77-3.83-2.77l-25.95-.01q-.69 0-.2-.49l15.47-15.48a2.66 2.66 0 0 1 1.93-.78q4.4.06 8.97-.02c3.04-.06 4.92-3.35 2.96-5.83-1.23-1.56-3.38-1.57-5.14-1.34q-.87.12-.25-.5 12.66-12.64 25.66-25.66c4.04-4.05 2.72-8.76-1.17-12.41-4.87-4.56-9.54-12.27-17.16-6.05-.5.41-.84 1.08-1.26 1.56q-.59.66-.28-.17z" fill="#e0e0e2"/><path d="m355.91 185.97.7-1q2.82 1.08 4.24-.62 3.85-4.64 7.01-6.7c7.04-4.59 16.41-5.16 23.95-1.61q4.91 2.31 10.85 8.56 7.97 8.38 15.97 15.97 6.3 5.98 8.64 10.91c6.76 14.25-1.71 31.78-17.64 34.94q-8.68 1.72-16.39-2.24-3.98-2.04-10.62-8.76-10.27-10.39-19.52-19.84-1.03-1.06-2.21-2.53a.24.24 0 0 1 .2-.39q5.5.42 10.57-.9a.61.59-29.3 0 1 .58.15q8.79 8.54 16.82 16.82 6.06 6.24 9.16 7.56c16.14 6.84 29.65-13.13 17.31-25.57q-10.44-10.54-22.23-22.3c-6.11-6.1-15.5-7.69-22.27-1.48-4.99 4.58-10.75 4.37-15.12-.97z" fill="#00a9da"/><path d="m389.34 193.96q10.09 9.97 20.13 20.09 3.29 3.32 3.86 5.48 1.32 4.96-2.26 8.77c-3.9 4.15-9.78 3.23-13.55-.58q-9.49-9.63-18.23-18.26-.49-.48.12-.82 5.78-3.18 9.99-8.91c1.15-1.56.58-3.49-.78-4.72z" fill="#ffd42a"/><rect height="7.26" rx="3.59" width="150.26" x="165.54" y="202.69"/><path d="m432.83 206.54 71.91 70.55q.27 1.08.11 2.41-8.23 67.72-48.99 121.68-29.42 38.97-71.62 64.4-49.76 29.99-108.61 35.06-7.49.65-14.38 1.28-3.2.29-9.48-.17l-133.81-133.85q4.01 1.5 7.61 3.28 2.37 1.18 7.04 1.7 3.03.34 6.61.34 125.97-.09 252.07-.03a.43.42-90 0 0 .42-.43l.31-121.06q0-.67.63-.43 14.11 5.23 26.73-1.35c13.92-7.25 20.63-24.11 14.71-39.17q-.79-2.01-1.26-4.21z" fill="#806600"/><path d="m315.74 232.14c.42-.48.76-1.15 1.26-1.56 7.62-6.22 12.29 1.49 17.16 6.05 3.89 3.65 5.21 8.36 1.17 12.41q-13 13.02-25.66 25.66-.62.62.25.5c1.76-.23 3.91-.22 5.14 1.34 1.96 2.48.08 5.77-2.96 5.83q-4.57.08-8.97.02a2.66 2.66 0 0 0 -1.93.78l-15.47 15.48q-.49.49.2.49l25.95.01q2.92 0 3.83 2.77.2.61.05 1.23-.82 3.26-4.18 3.26h-32.72q-.87 0-1.49.61-4.96 4.9-9.89 9.91-1.49 1.53-4.01 2.45-10.81 3.93-21.15 7.21-.48.15-.61.64-.87 3.18-3.93 3.18-35.08 0-68.32 0-2.96 0-3.85-2.82c-.81-2.57 1.67-4.44 3.98-4.44q35.9-.03 69.22.03.57 0 .76-.54l5.55-15.7q.19-.53-.37-.53h-75.31q-2.95 0-3.83-2.81-.15-.47-.07-.96.55-3.5 4.1-3.5h78.33a1.37 1.35-67.2 0 0 .96-.4l15.95-15.92q.4-.41-.17-.41h-95.07q-2.82 0-3.95-2.59-.21-.48-.18-.99.23-3.69 3.93-3.69h102.38a1.74 1.71 22.4 0 0 1.21-.49l15.83-15.82q.41-.41-.17-.41-59.59 0-119.37-.02-3.53 0-3.52-3.55 0-.08 0-.15-.05-3.55 3.61-3.55 63.52-.02 126.53-.01.58 0 .99-.4l16.26-16.26q.36-.36-.15-.36-71.26.03-143.65 0-3.65 0-3.57-3.55.01-.07 0-.14-.14-3.55 3.57-3.55 72.03-.01 142.87.01c2.73 0 4.13 2.56 3.2 5.08q-.31.83.28.17zm.44 7.07 10.61 10.61a.54.54 0 0 0 .76 0l4.2-4.2a3.06 3.06 0 0 0 0-4.33l-7.04-7.04a3.06 3.06 0 0 0 -4.33 0l-4.2 4.2a.54.54 0 0 0 0 .76zm7.2032 14.766a.45.45 0 0 0 -.0011-.6363l-10.7384-10.7011a.45.45 0 0 0 -.6364.0011l-3.9105 3.9243a.45.45 0 0 0 .0011.6363l10.7384 10.7011a.45.45 0 0 0 .6364-.0011zm-62.1332 55.664 3 2.95a.4.4 0 0 0 .56-.01l50.41-50.41q.38-.38 0-.77l-2.81-2.84-7.81-7.74q-.37-.37-.75 0l-50.49 50.49q-.21.21 0 .41zm-10.21-3.23a.32.32 0 0 0 -.53.12l-2.27 6.42a.32.32 0 0 0 .07.33l4.46 4.4a.32.32 0 0 0 .33.07l6.38-2.2a.32.32 0 0 0 .12-.53z"/><path d="m316.18 239.21a.54.54 0 0 1 0-.76l4.2-4.2a3.06 3.06 0 0 1 4.33 0l7.04 7.04a3.06 3.06 0 0 1 0 4.33l-4.2 4.2a.54.54 0 0 1 -.76 0z" fill="#546f7a"/><path d="m382.9 248.7.05 113.54q0 .51-.51.52l-10.45.17.08-122.05a.62.62 0 0 1 1.02-.48z" fill="#c6c5ca"/><rect fill="#ff6137" height="6.44" rx=".45" transform="matrix(.70833984 .70587157 -.70587157 .70833984 315.74 250.27)" width="16.06" x="-8.03" y="-3.22"/><path d="m312.41 258.56-51.16 51.08-7.89-7.92q-.21-.2 0-.41l50.49-50.49q.38-.37.75 0z" fill="#ffd42a"/><path d="m312.41 258.56 2.81 2.84q.38.39 0 .77l-50.41 50.41a.4.4 0 0 1 -.56.01l-3-2.95z" fill="#ffa304"/><path d="m251.04 306.41 8.56 8.61a.32.32 0 0 1 -.12.53l-6.38 2.2a.32.32 0 0 1 -.33-.07l-4.46-4.4a.32.32 0 0 1 -.07-.33l2.27-6.42a.32.32 0 0 1 .53-.12z" fill="#e0e0e2"/></svg>